<svg xmlns="http://www.w3.org/2000/svg" xmlns:xlink="http://www.w3.org/1999/xlink" width="48" height="48" viewBox="0 0 48 48" fill="none"><defs><rect id="path_0" x="0" y="0" width="48" height="48" /></defs><g opacity="1" transform="translate(-2.2737367544323206e-13 0)  rotate(0 24 24)"><mask id="bg-mask-0" fill="white"><use xlink:href="#path_0"></use></mask><g mask="url(#bg-mask-0)" ><path id="路径 1" fill-rule="evenodd" style="fill:#FFFFFF" transform="translate(0 0)  rotate(0 24 24)" opacity="0.01" d="M0,48L48,48L48,0L0,0L0,48Z " /><g opacity="1" transform="translate(4 8)  rotate(0 20 16)"><path  id="路径 1" style="stroke:#1E52F1; stroke-width:3; stroke-opacity:1; stroke-dasharray:0 0" transform="translate(0 0)  rotate(0 20 16)" d="M2,32L38,32C39.1,32 40,31.1 40,30L40,2C40,0.9 39.1,0 38,0L2,0C0.9,0 0,0.9 0,2L0,30C0,31.1 0.9,32 2,32Z " /><path  id="路径 2" style="stroke:#1E52F1; stroke-width:3; stroke-opacity:1; stroke-dasharray:0 0" transform="translate(0 6)  rotate(0 20 0)" d="M0,0L40,0 " /><path  id="路径 3" style="stroke:#1E52F1; stroke-width:3; stroke-opacity:1; stroke-dasharray:0 0" transform="translate(16 15)  rotate(0 8 0)" d="M0,0L16,0 " /><path  id="路径 4" style="stroke:#1E52F1; stroke-width:3; stroke-opacity:1; stroke-dasharray:0 0" transform="translate(16 23)  rotate(0 8 0)" d="M0,0L16,0 " /><path  id="路径 5" style="stroke:#1E52F1; stroke-width:3; stroke-opacity:1; stroke-dasharray:0 0" transform="translate(8 15)  rotate(0 1 0)" d="M0,0L2,0 " /><path  id="路径 6" style="stroke:#1E52F1; stroke-width:3; stroke-opacity:1; stroke-dasharray:0 0" transform="translate(8 23)  rotate(0 1 0)" d="M0,0L2,0 " /></g></g></g></svg>