<svg preserveAspectRatio="none" width="100%" height="100%" overflow="visible" style="display: block;" viewBox="0 0 21.0331 18.165" fill="none" xmlns="http://www.w3.org/2000/svg">
<path id="Vector" d="M19.121 2.86816H12.11V1.59342C12.11 0.713859 11.3961 0 10.5165 0C9.63698 0 8.92313 0.713859 8.92313 1.59342V2.86816H1.9121C0.855985 2.86816 0 3.72415 0 4.78027V16.2529C0 17.309 0.855985 18.165 1.9121 18.165H19.121C20.1771 18.165 21.0331 17.309 21.0331 16.2529V4.78027C21.0331 3.72415 20.1771 2.86816 19.121 2.86816ZM10.5165 0.956062C10.8687 0.956062 11.1539 1.24127 11.1539 1.59342C11.1539 1.94557 10.8687 2.23078 10.5165 2.23078C10.1644 2.23078 9.87919 1.94557 9.87919 1.59342C9.87919 1.24127 10.1644 0.956062 10.5165 0.956062ZM6.37366 5.57698C7.8447 5.57698 9.03691 6.7695 9.03691 8.24023C9.03691 9.71095 7.84472 10.9035 6.37366 10.9035C4.90261 10.9035 3.71041 9.71095 3.71041 8.24023C3.71041 6.7695 4.90263 5.57698 6.37366 5.57698ZM10.5165 15.9342H2.23078V14.7506C2.23078 13.1161 3.55554 11.7913 5.19007 11.7913H7.55759C9.19179 11.7913 10.5166 13.1161 10.5166 14.7506L10.5165 15.9342ZM18.8023 9.87921H12.7474V8.92315H18.8023V9.87921ZM19.121 7.64843H11.1539V6.69237H19.121V7.64843Z" fill="var(--fill-0, #FF8D28)"/>
</svg>
