<svg preserveAspectRatio="none" width="100%" height="100%" overflow="visible" style="display: block;" viewBox="0 0 23.9644 20.97" fill="none" xmlns="http://www.w3.org/2000/svg">
<path id="Vector" d="M11.9823 2.39704C8.01142 2.39704 4.79295 5.61551 4.79295 9.58634C4.79295 13.5566 8.01142 16.7756 11.9823 16.7756C15.9525 16.7756 19.1715 13.5566 19.1715 9.58634C19.1715 5.61551 15.9525 2.39704 11.9823 2.39704ZM8.98672 7.18988C9.64842 7.18988 10.1849 7.72581 10.1849 8.38811C10.1849 9.04982 9.64842 9.58634 8.98672 9.58634C8.32501 9.58634 7.78849 9.04982 7.78849 8.38811C7.78849 7.72581 8.32501 7.18988 8.98672 7.18988ZM11.9823 14.3792C8.65615 14.3792 7.78849 10.7846 7.78849 10.7846H8.98672C8.98672 10.7846 9.20903 13.181 11.9823 13.181C14.7549 13.181 14.9778 10.7846 14.9778 10.7846H16.176C16.176 10.7846 15.3084 14.3792 11.9823 14.3792ZM14.9778 9.58634C14.316 9.58634 13.7796 9.04982 13.7796 8.38811C13.7796 7.72581 14.316 7.18988 14.9778 7.18988C15.6395 7.18988 16.176 7.72581 16.176 8.38811C16.176 9.04982 15.6395 9.58634 14.9778 9.58634ZM22.7662 7.18988H21.568C21.568 7.18988 19.1587 0 11.9823 0C4.77832 0 2.39649 7.18988 2.39649 7.18988C2.39649 7.18988 2.05075 7.18988 1.19829 7.18988C-0.0233454 7.18988 3.17639e-05 8.38811 3.17639e-05 8.38811C3.17639e-05 8.38811 3.17639e-05 10.3458 3.17639e-05 11.9828C3.17639e-05 13.1453 1.19829 13.181 1.19829 13.181H2.39649C2.39649 13.181 2.38657 20.97 10.1849 20.97H12.5814C13.38 20.9302 13.7796 20.97 13.7796 19.7711C13.7796 19.247 13.7772 18.5729 12.5814 18.5729C11.6815 18.5729 11.7072 18.5729 11.3831 18.5729C10.1791 18.5729 10.1849 19.1978 10.1849 19.7711C7.82359 19.7711 3.59474 17.9516 3.59474 13.181V7.78903C3.59474 7.78903 5.59569 1.19881 11.9823 1.19881C18.4005 1.19881 20.3698 7.78903 20.3698 7.78903V13.181C20.3698 13.181 21.7646 13.181 22.7662 13.181C23.9258 13.181 23.9644 11.9828 23.9644 11.9828C23.9644 11.9828 23.9644 9.35173 23.9644 8.38811C23.9644 7.1478 22.7662 7.18988 22.7662 7.18988Z" fill="var(--fill-0, #34C759)"/>
</svg>
