<svg width="16" height="16" viewBox="0 0 16 16" fill="none" xmlns="http://www.w3.org/2000/svg">
<g clip-path="url(#clip0_10_371)">
<path d="M4.8407 8.00284C4.84067 8.41643 4.92211 8.82598 5.08036 9.20811C5.23862 9.59023 5.47059 9.93744 5.76304 10.2299C6.05549 10.5224 6.40268 10.7544 6.78479 10.9127C7.1669 11.0709 7.57645 11.1524 7.99004 11.1524C8.40364 11.1524 8.81318 11.0709 9.19529 10.9127C9.5774 10.7544 9.9246 10.5224 10.217 10.2299C10.5095 9.93744 10.7415 9.59023 10.8997 9.20811C11.058 8.82598 11.1394 8.41643 11.1394 8.00284C11.1394 7.58924 11.058 7.17969 10.8997 6.79757C10.7415 6.41545 10.5095 6.06824 10.217 5.77577C9.9246 5.4833 9.5774 5.25131 9.19529 5.09302C8.81318 4.93474 8.40364 4.85327 7.99004 4.85327C7.57645 4.85327 7.1669 4.93474 6.78479 5.09302C6.40268 5.25131 6.05549 5.4833 5.76304 5.77577C5.47059 6.06824 5.23862 6.41545 5.08036 6.79757C4.92211 7.17969 4.84067 7.58924 4.8407 8.00284Z" fill="#666666"/>
<path d="M15.4713 7.46336H14.2458C14.2149 7.46339 14.1842 7.46608 14.1538 7.47139C13.8995 4.48251 11.5205 2.09998 8.53343 1.84081C8.53738 1.81463 8.53935 1.7882 8.53932 1.76173V0.535481C8.53932 0.393463 8.4829 0.257261 8.38248 0.156839C8.28206 0.0564166 8.14586 0 8.00384 0C7.86182 0 7.72562 0.0564166 7.6252 0.156839C7.52477 0.257261 7.46836 0.393463 7.46836 0.535481V1.76102C7.46839 1.78676 7.47024 1.81247 7.47389 1.83795C4.47716 2.08552 2.08641 4.46877 1.82724 7.46229C1.80533 7.45951 1.78328 7.45808 1.7612 7.458H0.535481C0.393463 7.458 0.257261 7.51442 0.156839 7.61484C0.0564166 7.71526 0 7.85147 0 7.99348C0 8.1355 0.0564166 8.27171 0.156839 8.37213C0.257261 8.47255 0.393463 8.52897 0.535481 8.52897H1.7612C1.78274 8.52895 1.80426 8.52758 1.82563 8.52486C2.07606 11.5261 4.46966 13.9182 7.47139 14.1676C7.46822 14.1913 7.46661 14.2151 7.46657 14.239V15.4645C7.46657 15.6065 7.52299 15.7427 7.62341 15.8432C7.72383 15.9436 7.86003 16 8.00205 16C8.14407 16 8.28027 15.9436 8.3807 15.8432C8.48112 15.7427 8.53753 15.6065 8.53753 15.4645V14.2383C8.5375 14.214 8.53583 14.1897 8.53254 14.1656C11.5227 13.9059 13.9036 11.5191 14.1551 8.52647C14.1852 8.53163 14.2157 8.53426 14.2463 8.53432H15.4718C15.5422 8.53432 15.6118 8.52047 15.6768 8.49356C15.7417 8.46665 15.8008 8.42721 15.8505 8.37748C15.9002 8.32776 15.9396 8.26873 15.9666 8.20376C15.9935 8.13879 16.0073 8.06916 16.0073 7.99884C16.0073 7.92847 15.9935 7.8588 15.9665 7.7938C15.9396 7.72879 15.9001 7.66974 15.8503 7.62001C15.8005 7.57028 15.7414 7.53084 15.6764 7.50397C15.6114 7.47709 15.5417 7.46329 15.4713 7.46336ZM12.7046 9.99369C12.2109 11.1677 11.2985 12.1163 10.1446 12.6554C8.99069 13.1945 7.67764 13.2855 6.46038 12.9109C5.24311 12.5362 4.20851 11.7226 3.55743 10.628C2.90636 9.53337 2.68528 8.23587 2.93713 6.9874C3.18897 5.73894 3.89576 4.6286 4.92027 3.87198C5.94477 3.11536 7.21389 2.76645 8.4812 2.89298C9.74851 3.01952 10.9236 3.61248 11.7783 4.55674C12.6329 5.50099 13.1062 6.72915 13.1063 8.00277C13.107 8.68667 12.9702 9.36373 12.7039 9.99369H12.7046Z" fill="#666666"/>
</g>
<defs>
<clipPath id="clip0_10_371">
<rect width="16" height="16" fill="white"/>
</clipPath>
</defs>
</svg>
