<svg width="23" height="25" viewBox="0 0 23 25.0083" fill="none" xmlns="http://www.w3.org/2000/svg" aria-hidden="true">
  <path
    fill-rule="evenodd"
    clip-rule="evenodd"
    d="M0 22.0083C0 23.6651 1.34315 25.0083 3 25.0083H20C21.6569 25.0083 23 23.6651 23 22.0083V10.4609C23 9.59741 22.628 8.77582 21.979 8.20621L13.479 0.745345C12.3468 -0.248448 10.6532 -0.248448 9.52098 0.745345L1.02098 8.20621C0.372042 8.77582 0 9.59741 0 10.4609V22.0083ZM2 22.0083C2 22.6749 2.33333 23.0083 3 23.0083H20C20.6667 23.0083 21 22.6749 21 22.0083V10.4609C21 10.159 20.8866 9.90847 20.6597 9.70932L12.1597 2.24845C11.7199 1.86243 11.2801 1.86243 10.8403 2.24845L2.34032 9.70932C2.11344 9.90846 2 10.159 2 10.4609V22.0083Z"
    fill="#333333"
  />
  <path
    d="M14.0555 19.2306H8.62955C8.09772 19.2306 7.66658 18.7995 7.66658 18.2677C7.66658 17.7358 8.09772 17.3047 8.62955 17.3047H14.0555C14.7612 17.3047 15.3333 17.7358 15.3333 18.2677C15.3333 18.7995 14.7612 19.2306 14.0555 19.2306Z"
    fill="#2768FA"
  />
</svg>
