<svg width="23" height="26" viewBox="0 0 23 26" fill="none" xmlns="http://www.w3.org/2000/svg" aria-hidden="true">
  <path
    d="M1 4.5C1 2.84315 2.34315 1.5 4 1.5H19C20.6569 1.5 22 2.84315 22 4.5V14.5C22 20.299 17.299 25 11.5 25H4C2.34315 25 1 23.6569 1 22V4.5Z"
    fill="#2768FA"
  />
  <path
    d="M12.4437 26H3.04752C1.36689 26 0 24.7096 0 23.1234V2.87635C0 1.29012 1.3672 0 3.04752 0H19.9525C21.6331 0 23 1.29042 23 2.87635V16.0361C23 21.5303 18.2643 26 12.4437 26ZM3.04752 1.94353C2.50228 1.94353 2.05888 2.36203 2.05888 2.87665V23.1234C2.05888 23.6383 2.50228 24.0568 3.04752 24.0568H12.4437C17.1292 24.0568 20.9411 20.4589 20.9411 16.0363V2.87635C20.9411 2.36174 20.4977 1.94324 19.9525 1.94324L3.04752 1.94353Z"
    fill="#2768FA"
  />
  <path
    d="M15.6476 11.1015H7.35242C6.8202 11.1015 6.38892 10.6948 6.38892 10.1936C6.38892 9.69233 6.8205 9.28564 7.35242 9.28564H15.6476C16.1799 9.28564 16.6111 9.69233 16.6111 10.1936C16.6111 10.6948 16.1799 11.1015 15.6476 11.1015ZM12.0026 16.7142H7.35242C6.8202 16.7142 6.38892 16.3075 6.38892 15.8063C6.38892 15.3048 6.8205 14.8983 7.35242 14.8983H12.0026C12.5349 14.8983 12.9661 15.305 12.9661 15.8063C12.9664 16.3075 12.5349 16.7142 12.0026 16.7142Z"
    fill="#FFFFFF"
  />
</svg>
