<svg width="16" height="16" viewBox="0 0 16 16" fill="none" xmlns="http://www.w3.org/2000/svg">
<path d="M12.728 5.44085L8.6384 10.8568C8.56383 10.9556 8.46736 11.0357 8.35658 11.0909C8.24581 11.146 8.12375 11.1747 8 11.1747C7.87626 11.1747 7.7542 11.146 7.64342 11.0909C7.53265 11.0357 7.43618 10.9556 7.3616 10.8568L3.272 5.44165C3.22701 5.38228 3.19949 5.31153 3.19254 5.23737C3.18559 5.1632 3.19949 5.08857 3.23267 5.02188C3.26585 4.95519 3.31699 4.89908 3.38034 4.85989C3.44368 4.8207 3.51671 4.79997 3.5912 4.80005H12.408C12.4824 4.79994 12.5554 4.82059 12.6187 4.85968C12.6821 4.89878 12.7332 4.95476 12.7665 5.02134C12.7997 5.08792 12.8137 5.16246 12.8069 5.23657C12.8001 5.31068 12.7728 5.38142 12.728 5.44085Z" fill="#5A5A68"/>
</svg>
