<svg id="图层_1" data-name="图层 1" xmlns="http://www.w3.org/2000/svg" viewBox="0 0 120.4 105.48"><defs><style>.cls-1{fill:#2794d8;stroke:#2794d8;stroke-miterlimit:10;}</style></defs><title>7</title><path class="cls-1" d="M78.6,27.83a6,6,0,0,1,6,6V57.67h35.77a6,6,0,0,1,6,6v59.72h3a3,3,0,0,1,3,3v3a3,3,0,0,1-3,3H15.91a3,3,0,0,1-3-3v-3a3,3,0,0,1,3-3h3V33.8a6,6,0,0,1,6-6Zm6,38.39v56.94l33.07.19V66.42l-33.07-.2ZM75.75,36.4H28v86.79H75.47V63.64a6,6,0,0,1,.27-1.79ZM63.67,99.48a3,3,0,0,1,3,3v3a3,3,0,0,1-3,3H39.79a3,3,0,0,1-3-3v-3a3,3,0,0,1,3-3Zm0-23.88a3,3,0,0,1,3,3v3a3,3,0,0,1-3,3H39.79a3,3,0,0,1-3-3v-3a3,3,0,0,1,3-3Zm0-23.88a3,3,0,0,1,3,3v3a3,3,0,0,1-3,3H39.79a3,3,0,0,1-3-3v-3a3,3,0,0,1,3-3Zm0,0" transform="translate(-12.42 -27.33)"/></svg>