<svg xmlns="http://www.w3.org/2000/svg" xmlns:xlink="http://www.w3.org/1999/xlink" width="36" height="36" viewBox="0 0 36 36" fill="none"><defs><rect id="path_0" x="0" y="0" width="36" height="36" /></defs><g opacity="1" transform="translate(0 0)  rotate(0 18 18)"><mask id="bg-mask-0" fill="white"><use xlink:href="#path_0"></use></mask><g mask="url(#bg-mask-0)" ><path id="路径 1" fill-rule="evenodd" style="fill:#FFFFFF" transform="translate(0 0)  rotate(0 18 18)" opacity="0.01" d="M0,36L36,36L36,0L0,0L0,36Z " /><path  id="路径 2" style="stroke:#929292; stroke-width:3; stroke-opacity:1; stroke-dasharray:0 0" transform="translate(3 3)  rotate(0 15 15)" d="M30,15C30,6.72 23.28,0 15,0C6.72,0 0,6.72 0,15C0,23.28 6.72,30 15,30C23.28,30 30,23.28 30,15Z " /><path  id="路径 3" style="stroke:#929292; stroke-width:3; stroke-opacity:1; stroke-dasharray:0 0" transform="translate(13.5 16.5)  rotate(0 4.5 0)" d="M0,0L9,0 " /><path  id="路径 4" style="stroke:#929292; stroke-width:3; stroke-opacity:1; stroke-dasharray:0 0" transform="translate(13.5 21)  rotate(0 4.5 0)" d="M0,0L9,0 " /><path  id="路径 5" style="stroke:#929292; stroke-width:3; stroke-opacity:1; stroke-dasharray:0 0" transform="translate(18.006225 16.5)  rotate(0 0 4.5)" d="M0,0L0,9 " /><path  id="路径 6" style="stroke:#929292; stroke-width:3; stroke-opacity:1; stroke-dasharray:0 0" transform="translate(13.5 11.25)  rotate(0 4.5 2.25)" d="M9,0L4.5,4.5L0,0 " /></g></g></svg>