<svg xmlns="http://www.w3.org/2000/svg" xmlns:xlink="http://www.w3.org/1999/xlink" width="364" height="123" viewBox="0 0 364 123" fill="none"><defs><linearGradient id="linear_0" x1="50%" y1="0%" x2="51%" y2="129.341%" gradientUnits="objectBoundingBox"><stop offset="0" stop-color="#1E52F1" stop-opacity="0.5" /><stop offset="1" stop-color="#1E52F1" stop-opacity="1" /></linearGradient><filter id="filter_0" x="4" y="4" width="356" height="115" filterUnits="userSpaceOnUse" color-interpolation-filters="sRGB"></filter><filter id="filter_1" x="-4" y="-4" width="364" height="123" filterUnits="userSpaceOnUse" color-interpolation-filters="sRGB"><feFlood flood-opacity="0" result="BackgroundImageFix"/>
          <feGaussianBlur in="BackgroundImage" stdDeviation="2"/>
          <feComposite in2="SourceAlpha" operator="in" result="effect1_backgroundBlur"/>
          <feBlend mode="normal" in="SourceGraphic" in2="effect1_backgroundBlur" result="shape"/></filter></defs><g id="矩形 1" filter="url(#filter_1)"><path id="矩形 1" fill-rule="evenodd" fill="url(#linear_0)" transform="translate(4 4)  rotate(0 178 57.5)" opacity="1" d="M30,115L326,115C342.57,115 356,101.57 356,85L356,30C356,13.43 342.57,0 326,0L30,0C13.43,0 0,13.43 0,30L0,85C0,101.57 13.43,115 30,115Z " /><path  id="矩形 1" style="stroke:#1E52F1; stroke-width:0.5; stroke-opacity:0.2; stroke-dasharray:0 0" transform="translate(4 4)  rotate(0 178 57.5)" d="M30,115L326,115C342.57,115 356,101.57 356,85L356,30C356,13.43 342.57,0 326,0L30,0C13.43,0 0,13.43 0,30L0,85C0,101.57 13.43,115 30,115Z " /></g></svg>