<svg xmlns="http://www.w3.org/2000/svg" xmlns:xlink="http://www.w3.org/1999/xlink" width="96" height="95.9993058313928" viewBox="0 0 96 95.9993058313928" fill="none"><defs><rect id="path_0" x="0" y="0" width="70" height="70" /></defs><g opacity="1" transform="translate(0 0)  rotate(0 48 47.9996529156964)"><g opacity="1" transform="translate(0 0)  rotate(0 48 47.99965291569641)"><path id="路径 1" fill-rule="evenodd" style="fill:#FF866E" transform="translate(0 0)  rotate(0 48.00000000000002 47.99965291569641)" opacity="1" d="M48,0.01C18.21,-0.45 -0.45,18.21 0.01,48C-0.45,77.79 18.21,96.45 48,95.99C77.8,96.45 96.47,77.79 95.99,48C96.45,18.21 77.8,-0.45 48,0.01Z " /></g><g opacity="1" transform="translate(13 12.999652915696515)  rotate(0 35 35)"><mask id="bg-mask-0" fill="white"><use xlink:href="#path_0"></use></mask><g mask="url(#bg-mask-0)" ><path id="路径 1" fill-rule="evenodd" style="fill:#FFFFFF" transform="translate(0 0)  rotate(0 35 35)" opacity="0.01" d="M0,70L70,70L70,0L0,0L0,70Z " /><path  id="路径 2" style="stroke:#FFFFFF; stroke-width:4.38; stroke-opacity:1; stroke-dasharray:0 0" transform="translate(13.125 35)  rotate(0 7.291666666666668 7.291666666666668)" d="M7.29,0C3.26,0 0,3.26 0,7.29C0,11.32 3.26,14.58 7.29,14.58C11.32,14.58 14.58,11.32 14.58,7.29C14.58,3.26 11.32,0 7.29,0Z " /><path  id="路径 3" style="stroke:#FFFFFF; stroke-width:4.38; stroke-opacity:1; stroke-dasharray:0 0" transform="translate(42.29166666666667 35)  rotate(0 7.291666666666668 7.291666666666668)" d="M7.29,0C3.26,0 0,3.26 0,7.29C0,11.32 3.26,14.58 7.29,14.58C11.32,14.58 14.58,11.32 14.58,7.29C14.58,3.26 11.32,0 7.29,0Z " /><path  id="路径 4" style="stroke:#FFFFFF; stroke-width:4.38; stroke-opacity:1; stroke-dasharray:0 0" transform="translate(27.708333333333336 5.833333333333334)  rotate(0 7.291666666666668 7.291666666666668)" d="M7.29,0C3.26,0 0,3.26 0,7.29C0,11.32 3.26,14.58 7.29,14.58C11.32,14.58 14.58,11.32 14.58,7.29C14.58,3.26 11.32,0 7.29,0Z " /><path  id="路径 5" style="stroke:#FFFFFF; stroke-width:4.38; stroke-opacity:1; stroke-dasharray:0 0" transform="translate(5.833333333333334 49.58333333333334)  rotate(0 14.583333333333336 7.291666666666668)" d="M29.17,14.58C29.17,6.53 22.64,0 14.58,0C6.53,0 0,6.53 0,14.58 " /><path  id="路径 6" style="stroke:#FFFFFF; stroke-width:4.38; stroke-opacity:1; stroke-dasharray:0 0" transform="translate(35 49.58333333333334)  rotate(0 14.583333333333336 7.291666666666668)" d="M29.17,14.58C29.17,6.53 22.64,0 14.58,0C6.53,0 0,6.53 0,14.58 " /><path  id="路径 7" style="stroke:#FFFFFF; stroke-width:4.38; stroke-opacity:1; stroke-dasharray:0 0" transform="translate(20.416666666666668 20.416666666666668)  rotate(0 14.583333333333336 7.291666666666668)" d="M29.17,14.58C29.17,6.53 22.64,0 14.58,0C6.53,0 0,6.53 0,14.58 " /></g></g></g></svg>